<?xml version="1.0" standalone="no"?>
<!DOCTYPE svg PUBLIC "-//W3C//DTD SVG 20010904//EN"
 "http://www.w3.org/TR/2001/REC-SVG-20010904/DTD/svg10.dtd">
<svg version="1.0" xmlns="http://www.w3.org/2000/svg"
 width="500.000000pt" height="500.000000pt" viewBox="0 0 500.000000 500.000000"
 preserveAspectRatio="xMidYMid meet">

<g transform="translate(0.000000,500.000000) scale(0.100000,-0.100000)"
fill="#000000" stroke="none">
<path d="M2330 3395 c-47 -8 -112 -23 -145 -36 -73 -27 -196 -92 -250 -132
-49 -37 -175 -159 -175 -169 0 -4 288 -9 640 -10 l640 -3 -149 -137 -150 -138
-131 0 c-126 0 -131 -1 -139 -22 -5 -13 -41 -96 -80 -184 -39 -89 -71 -165
-71 -170 0 -9 -233 -238 -341 -335 -119 -106 -217 -189 -223 -189 -3 0 11 37
30 83 20 45 44 105 54 132 16 47 52 129 184 430 80 180 106 242 106 249 0 3
-120 5 -267 4 l-268 -3 -22 -85 c-20 -75 -22 -104 -19 -245 2 -110 8 -178 20
-219 117 -415 461 -694 878 -713 138 -7 238 7 353 48 154 54 281 135 395 253
l44 46 -422 0 c-267 0 -422 4 -422 10 0 5 9 29 19 52 33 73 255 592 262 614 5
15 550 516 555 511 3 -2 -11 -38 -30 -80 -19 -41 -37 -86 -41 -99 -4 -13 -19
-48 -32 -78 -37 -81 -113 -260 -113 -265 0 -3 -14 -35 -31 -72 -42 -93 -119
-281 -119 -293 0 -7 96 -9 267 -8 l266 3 19 65 c57 203 31 476 -64 664 -196
389 -591 589 -1028 521z"/>
</g>
</svg>
