<?xml version="1.0" standalone="no"?>
<!DOCTYPE svg PUBLIC "-//W3C//DTD SVG 20010904//EN"
 "http://www.w3.org/TR/2001/REC-SVG-20010904/DTD/svg10.dtd">
<svg version="1.0" xmlns="http://www.w3.org/2000/svg"
 width="1200.000000pt" height="1200.000000pt" viewBox="0 0 1200.000000 1200.000000"
 preserveAspectRatio="xMidYMid meet">

<g transform="translate(0.000000,1200.000000) scale(0.100000,-0.100000)"
fill="#000000" stroke="none">
<path d="M2210 6000 l0 -1420 1255 0 1255 0 0 1420 0 1420 -1255 0 -1255 0 0
-1420z m2245 1250 c3 -5 1 -38 -4 -72 -6 -35 -17 -115 -26 -178 -8 -63 -17
-134 -21 -157 l-5 -43 -327 -2 -327 -3 -21 -175 c-12 -96 -27 -213 -33 -260
-6 -47 -24 -197 -41 -335 -16 -137 -34 -284 -40 -325 -15 -114 -35 -271 -81
-655 -24 -192 -48 -353 -54 -357 -5 -5 -134 -7 -285 -5 l-275 2 3 40 c2 22 9
92 17 155 8 63 28 228 45 365 16 138 34 284 40 325 5 41 14 113 20 160 5 47
24 198 40 335 17 138 37 306 45 375 9 69 20 157 25 195 5 39 12 91 15 118 l6
47 -325 0 -326 0 0 35 c0 31 31 297 46 388 l6 37 938 0 c591 0 941 -4 945 -10z"/>
<path d="M5204 6327 c-3 -8 -4 -39 -2 -68 l3 -54 73 -3 c67 -3 72 -5 72 -25 0
-12 2 -134 3 -272 l2 -250 54 -3 c30 -2 58 1 62 5 9 9 17 188 18 410 l1 132
68 3 67 3 0 65 0 65 -208 3 c-170 2 -208 0 -213 -11z"/>
<path d="M5742 6332 c-10 -7 -12 -81 -12 -336 0 -180 2 -332 6 -337 3 -5 29
-9 59 -9 39 0 54 4 59 16 3 9 6 72 6 140 0 114 2 124 18 124 14 0 29 -25 61
-98 54 -126 97 -173 169 -180 68 -6 92 9 92 56 0 45 -14 62 -50 62 -34 0 -62
31 -96 104 -19 41 -24 61 -15 64 34 11 107 71 123 102 16 28 19 50 15 111 -4
93 -27 136 -90 167 -39 20 -60 22 -188 22 -79 0 -150 -4 -157 -8z m256 -128
c50 -14 66 -111 22 -134 -10 -6 -50 -10 -89 -10 l-71 0 0 75 0 75 58 0 c31 0
67 -3 80 -6z"/>
<path d="M6414 6326 c-45 -20 -81 -63 -101 -121 -15 -42 -17 -90 -18 -300 l0
-250 60 0 60 0 3 113 3 112 104 0 104 0 3 -112 3 -113 53 -3 c30 -2 59 2 66 7
16 13 21 427 6 515 -11 68 -47 121 -101 148 -42 22 -198 24 -245 4z m168 -117
c28 -15 48 -70 48 -134 l0 -55 -105 0 -105 0 6 48 c10 94 15 113 35 133 21 21
87 26 121 8z"/>
<path d="M6840 6312 c0 -23 60 -216 184 -592 l21 -65 60 0 60 0 22 45 c19 41
87 239 173 506 18 56 30 109 27 118 -8 20 -109 23 -124 4 -6 -7 -22 -53 -37
-103 -47 -153 -98 -309 -109 -329 -11 -22 -8 -31 -98 264 -27 90 -55 168 -62
172 -7 4 -36 8 -64 8 -51 0 -53 -1 -53 -28z"/>
<path d="M7495 6329 c-4 -6 -10 -159 -12 -339 l-6 -329 24 -6 c13 -3 105 -4
204 -3 l180 3 0 65 0 65 -137 3 -138 3 0 74 0 75 134 0 134 0 7 59 c4 33 4 65
0 70 -4 7 -56 11 -136 11 l-129 0 0 60 0 59 133 3 132 3 0 65 0 65 -192 3
c-133 2 -194 -1 -198 -9z"/>
<path d="M8015 6327 c-3 -6 -4 -161 -3 -342 l3 -330 147 -3 c169 -3 172 -1
166 86 l-3 47 -92 3 -93 3 1 264 c1 145 -2 268 -6 274 -9 16 -114 14 -120 -2z"/>
<path d="M8434 6329 c-4 -7 -9 -160 -12 -340 l-4 -328 23 -6 c13 -3 85 -4 159
-3 l135 3 3 68 3 67 -94 0 -94 0 1 273 1 272 -57 3 c-37 2 -59 -1 -64 -9z"/>
<path d="M8845 6329 c-4 -6 -10 -159 -12 -339 l-6 -329 24 -6 c13 -3 105 -4
204 -3 l180 3 0 65 0 65 -137 3 -138 3 0 74 0 75 134 0 134 0 7 59 c4 33 4 65
0 70 -4 7 -56 11 -136 11 l-129 0 0 60 0 59 133 3 132 3 0 65 0 65 -192 3
c-133 2 -194 -1 -198 -9z"/>
</g>
</svg>
